

<svg xmlns="http://www.w3.org/2000/svg" fill="none" viewBox="0 0 34 35" width="28px" height="28px" cursor="pointer"><path fill="#0C1014" d="M17.12 9.238c.765 0 1.385.62 1.385 1.385v5.54h5.54a1.385 1.385 0 1 1 0 2.77h-5.54v5.539a1.385 1.385 0 0 1-2.77 0v-5.54h-5.54a1.385 1.385 0 1 1 0-2.77h5.54v-5.54c0-.764.62-1.384 1.385-1.384"></path><path fill="#0C1014" fill-rule="evenodd" d="M15.743 3.698c-1.92 0-3.446 0-4.677.102-1.26.105-2.335.324-3.316.834a8.3 8.3 0 0 0-3.544 3.543c-.51.981-.728 2.055-.833 3.316-.102 1.231-.102 2.758-.102 4.677v2.755c0 1.92 0 3.446.102 4.677.105 1.26.324 2.334.833 3.316A8.3 8.3 0 0 0 7.75 30.46c.981.51 2.055.729 3.316.833 1.23.103 2.757.103 4.677.103h2.754c1.92 0 3.446 0 4.677-.103 1.261-.104 2.335-.323 3.316-.833a8.3 8.3 0 0 0 3.544-3.543c.51-.982.728-2.056.833-3.316.102-1.231.102-2.758.102-4.677V16.17c0-1.92 0-3.446-.102-4.677-.105-1.26-.324-2.335-.833-3.316a8.3 8.3 0 0 0-3.544-3.543c-.98-.51-2.055-.729-3.316-.834-1.23-.102-2.757-.102-4.677-.102zM9.027 7.092c.52-.27 1.182-.441 2.268-.531 1.103-.092 2.514-.093 4.51-.093h2.63c1.996 0 3.407.001 4.51.093 1.086.09 1.749.26 2.268.53a5.54 5.54 0 0 1 2.363 2.363c.27.52.44 1.182.53 2.268.092 1.103.093 2.515.093 4.51v2.631c0 1.995 0 3.407-.092 4.51-.09 1.086-.261 1.748-.531 2.268a5.54 5.54 0 0 1-2.363 2.362c-.52.27-1.182.44-2.268.531-1.103.092-2.514.093-4.51.093h-2.63c-1.996 0-3.407-.001-4.51-.093-1.086-.09-1.748-.26-2.268-.53a5.54 5.54 0 0 1-2.363-2.363c-.27-.52-.44-1.182-.53-2.268-.092-1.103-.093-2.515-.093-4.51v-2.631c0-1.995 0-3.407.092-4.51.09-1.086.261-1.748.531-2.268a5.54 5.54 0 0 1 2.363-2.362" clip-rule="evenodd"></path></svg>