<svg xmlns="http://www.w3.org/2000/svg" fill="none" viewBox="0 0 35 35" width="28px" height="28px" cursor="pointer"><path fill="#0C1014" d="M21.446 20.5c.369.227.369.793 0 1.02l-5.817 3.565c-.37.226-.83-.057-.83-.51v-7.131c0-.453.46-.736.83-.51z"></path><path fill="#0C1014" fill-rule="evenodd" d="M12.028 3.698a8.31 8.31 0 0 0-8.31 8.31v11.08a8.31 8.31 0 0 0 8.31 8.309h11.08a8.31 8.31 0 0 0 8.31-8.31v-11.08a8.31 8.31 0 0 0-8.31-8.309zm11.08 2.77h-1.709l2.493 4.155h4.58a5.54 5.54 0 0 0-5.364-4.155m5.54 6.925H6.487v9.694a5.54 5.54 0 0 0 5.54 5.54h11.08a5.54 5.54 0 0 0 5.54-5.54zm-21.985-2.77h5.69l-2.28-3.8a5.55 5.55 0 0 0-3.41 3.8m8.92 0h5.079l-2.493-4.155h-5.08z" clip-rule="evenodd"></path></svg>